<svg width="1177" height="1156" viewBox="0 0 1177 1156" fill="none" xmlns="http://www.w3.org/2000/svg">
<g clip-path="url(#clip0)">
<rect width="1177" height="1156" fill="#001523"/>
<path d="M1887.01 259.007C1674.95 13.1152 1348.57 160.573 908 268C800.829 294.132 231.294 573.658 120 794C72.5211 888 46.3779 1132.59 274 1166C406.077 1185.39 640 1186 806 1186C1067.12 1208.91 1845.73 1174.67 1804.44 865.035C1765.29 571.406 2055.34 425.731 1887.01 259.007Z" fill="#F2F2F2" fill-opacity="0.04"/>
<path d="M292.738 280.563C292.186 280.524 291.636 280.672 291.14 280.995C290.644 281.318 290.22 281.804 289.907 282.406C289.594 283.008 289.404 283.707 289.355 284.435C289.305 285.162 289.398 285.895 289.625 286.561C291.319 287.172 293.089 287.325 294.83 287.01C295.697 286.832 296.506 286.318 297.153 285.533C297.801 284.748 298.258 283.727 298.467 282.6C296.419 283.093 294.305 282.559 292.538 281.102" fill="#3F3D56"/>
<path d="M632.5 109C645.479 109 656 99.1503 656 87C656 74.8497 645.479 65 632.5 65C619.521 65 609 74.8497 609 87C609 99.1503 619.521 109 632.5 109Z" fill="#119DFD" fill-opacity="0.4"/>
<path d="M632.5 230C645.479 230 656 220.15 656 208C656 195.85 645.479 186 632.5 186C619.521 186 609 195.85 609 208C609 220.15 619.521 230 632.5 230Z" fill="#119DFD" fill-opacity="0.4"/>
<path d="M430.5 181C442.374 181 452 171.374 452 159.5C452 147.626 442.374 138 430.5 138C418.626 138 409 147.626 409 159.5C409 171.374 418.626 181 430.5 181Z" fill="#119DFD" fill-opacity="0.4"/>
<path d="M211.5 109C225.031 109 236 99.1503 236 87C236 74.8497 225.031 65 211.5 65C197.969 65 187 74.8497 187 87C187 99.1503 197.969 109 211.5 109Z" fill="#119DFD" fill-opacity="0.4"/>
<path d="M395.5 88C409.031 88 420 78.1503 420 66C420 53.8497 409.031 44 395.5 44C381.969 44 371 53.8497 371 66C371 78.1503 381.969 88 395.5 88Z" fill="#119DFD" fill-opacity="0.4"/>
<path d="M757.5 87C769.926 87 780 77.3741 780 65.5C780 53.6259 769.926 44 757.5 44C745.074 44 735 53.6259 735 65.5C735 77.3741 745.074 87 757.5 87Z" fill="#119DFD" fill-opacity="0.4"/>
<path d="M890 300C916.51 300 938 279.629 938 254.5C938 229.371 916.51 209 890 209C863.49 209 842 229.371 842 254.5C842 279.629 863.49 300 890 300Z" fill="#FF00B6" fill-opacity="0.39"/>
<path d="M890 112C916.51 112 938 91.629 938 66.5C938 41.371 916.51 21 890 21C863.49 21 842 41.371 842 66.5C842 91.629 863.49 112 890 112Z" fill="#119DFD"/>
<path d="M211.071 1083.51L168.437 1050.84C166.501 1051.92 164.116 1052.66 161.542 1052.97C153.516 1053.94 145.677 1050.58 144.035 1045.46C143.468 1043.77 143.666 1042.02 144.607 1040.39C145.548 1038.76 147.195 1037.32 149.372 1036.22L134.836 1025.08L52.0174 1068.5L128.252 1126.93L211.071 1083.51Z" fill="#F2F2F2" fill-opacity="0.37"/>
<path d="M420.141 1098.06L377.507 1065.39C375.571 1066.47 373.186 1067.21 370.612 1067.52C362.586 1068.49 354.747 1065.13 353.104 1060.01C352.538 1058.32 352.736 1056.57 353.677 1054.94C354.618 1053.31 356.265 1051.87 358.442 1050.77L343.906 1039.63L261.087 1083.05L337.322 1141.48L420.141 1098.06Z" fill="#F2F2F2" fill-opacity="0.37"/>
<path d="M537.18 1038.54L494.546 1005.87C492.61 1006.95 490.225 1007.69 487.651 1008C479.625 1008.97 471.786 1005.61 470.144 1000.49C469.577 998.8 469.775 997.045 470.716 995.417C471.657 993.789 473.305 992.349 475.482 991.253L460.945 980.111L378.126 1023.53L454.362 1081.96L537.18 1038.54Z" fill="#F2F2F2" fill-opacity="0.35"/>
<path d="M321.053 1032.43L278.419 999.755C276.484 1000.84 274.098 1001.58 271.525 1001.89C263.498 1002.86 255.66 999.498 254.017 994.381C253.451 992.689 253.649 990.934 254.589 989.306C255.53 987.678 257.178 986.238 259.355 985.142L244.818 974L162 1017.41L238.235 1075.85L321.053 1032.43Z" fill="#F2F2F2" fill-opacity="0.37"/>
<path d="M430.053 972.432L387.419 939.755C385.484 940.84 383.098 941.579 380.525 941.89C372.498 942.86 364.66 939.498 363.017 934.381C362.451 932.689 362.649 930.934 363.589 929.306C364.53 927.678 366.178 926.238 368.355 925.142L353.818 914L271 957.415L347.235 1015.85L430.053 972.432Z" fill="#F2F2F2" fill-opacity="0.14"/>
<path d="M839.053 1012.43L796.42 979.755C794.484 980.84 792.099 981.579 789.525 981.89C781.498 982.86 773.66 979.498 772.017 974.381C771.451 972.689 771.649 970.934 772.589 969.306C773.53 967.678 775.178 966.238 777.355 965.142L762.818 954L680 997.414L756.235 1055.85L839.053 1012.43Z" fill="#F2F2F2" fill-opacity="0.22"/>
<path d="M956.053 955.432L913.42 922.755C911.484 923.84 909.099 924.579 906.525 924.89C898.498 925.86 890.66 922.498 889.017 917.381C888.451 915.689 888.649 913.934 889.589 912.306C890.53 910.678 892.178 909.238 894.355 908.142L879.818 897L797 940.415L873.235 998.847L956.053 955.432Z" fill="#F2F2F2" fill-opacity="0.22"/>
<path d="M1135.05 987.432L1092.42 954.755C1090.48 955.84 1088.1 956.579 1085.52 956.89C1077.5 957.86 1069.66 954.498 1068.02 949.381C1067.45 947.689 1067.65 945.934 1068.59 944.306C1069.53 942.678 1071.18 941.238 1073.36 940.142L1058.82 929L976 972.415L1052.24 1030.85L1135.05 987.432Z" fill="#F2F2F2" fill-opacity="0.22"/>
<path d="M732.053 1068.43L689.419 1035.75C687.484 1036.84 685.098 1037.58 682.525 1037.89C674.498 1038.86 666.66 1035.5 665.017 1030.38C664.451 1028.69 664.649 1026.93 665.589 1025.31C666.53 1023.68 668.178 1022.24 670.355 1021.14L655.818 1010L573 1053.41L649.235 1111.85L732.053 1068.43Z" fill="#F2F2F2" fill-opacity="0.37"/>
<path d="M1030.05 1037.43L987.42 1004.75C985.484 1005.84 983.099 1006.58 980.525 1006.89C972.498 1007.86 964.66 1004.5 963.017 999.381C962.451 997.689 962.649 995.934 963.589 994.306C964.53 992.678 966.178 991.238 968.355 990.142L953.818 979L871 1022.41L947.235 1080.85L1030.05 1037.43Z" fill="#F2F2F2" fill-opacity="0.37"/>
<path d="M928.053 1094.43L885.419 1061.75C883.484 1062.84 881.098 1063.58 878.525 1063.89C870.498 1064.86 862.66 1061.5 861.017 1056.38C860.451 1054.69 860.649 1052.93 861.589 1051.31C862.53 1049.68 864.178 1048.24 866.355 1047.14L851.818 1036L769 1079.41L845.235 1137.85L928.053 1094.43Z" fill="#F2F2F2" fill-opacity="0.37"/>
<path d="M1060.59 772.081C1049.87 771.548 1039.45 776.665 1031.6 786.304C1023.76 795.943 1019.13 809.316 1018.75 823.48C1017.95 852.975 1056.11 914 1056.11 914C1056.11 914 1098.72 856.99 1099.52 827.494C1099.91 813.33 1096.02 799.534 1088.72 789.142C1081.42 778.75 1071.3 772.613 1060.59 772.081ZM1058.43 851.539C1054.73 851.355 1051.15 849.724 1048.14 846.851C1045.14 843.979 1042.85 839.994 1041.55 835.401C1040.26 830.809 1040.02 825.814 1040.87 821.049C1041.73 816.284 1043.63 811.963 1046.34 808.631C1049.05 805.3 1052.45 803.109 1056.11 802.334C1059.76 801.56 1063.51 802.237 1066.88 804.28C1070.25 806.323 1073.09 809.641 1075.03 813.813C1076.98 817.985 1077.95 822.825 1077.82 827.72C1077.64 834.284 1075.49 840.481 1071.86 844.948C1068.22 849.415 1063.39 851.786 1058.43 851.539Z" fill="#119DFD" fill-opacity="0.4"/>
<path d="M1028.5 208C1054.73 208 1076 186.062 1076 159C1076 131.938 1054.73 110 1028.5 110C1002.27 110 981 131.938 981 159C981 186.062 1002.27 208 1028.5 208Z" fill="#FF00B6" fill-opacity="0.69"/>
</g>
<defs>
<clipPath id="clip0">
<rect width="1177" height="1156" fill="white"/>
</clipPath>
</defs>
</svg>
