<svg width="911" height="920" viewBox="0 0 911 920" fill="none" xmlns="http://www.w3.org/2000/svg">
<path d="M453.611 0C205.742 0 0 124.127 0 325.201C0 584.127 189.221 920 453.611 920C718 920 910.117 562.222 910.117 325.201C910.117 124.127 701.479 0 453.611 0Z" fill="url(#paint0_linear)"/>
<path d="M386.801 374.373L369.637 391.537V446H321.94V192.5H369.637V332.948L378.879 321.065L424.595 267.428H481.863L417.333 341.86L487.475 446H432.682L386.801 374.373ZM621.156 358.364C621.156 386.971 615.05 409.306 602.837 425.37C590.624 441.324 573.57 449.301 551.675 449.301C532.31 449.301 516.852 441.874 505.299 427.021L503.153 446H460.243V192.5H507.939V283.437C518.942 270.563 533.41 264.127 551.345 264.127C573.13 264.127 590.184 272.159 602.507 288.223C614.94 304.176 621.156 326.677 621.156 355.724V358.364ZM573.46 354.898C573.46 336.854 570.599 323.706 564.878 315.454C559.157 307.092 550.63 302.911 539.297 302.911C524.113 302.911 513.661 309.128 507.939 321.561V392.032C513.771 404.575 524.333 410.847 539.627 410.847C555.031 410.847 565.153 403.255 569.994 388.071C572.305 380.81 573.46 369.752 573.46 354.898Z" fill="white"/>
<defs>
<linearGradient id="paint0_linear" x1="-144.872" y1="-388.125" x2="-603.702" y2="422.091" gradientUnits="userSpaceOnUse">
<stop offset="0.0169787" stop-color="#FF03A5"/>
<stop offset="0.0675856" stop-color="#FF00B3"/>
<stop offset="0.197385" stop-color="#FF00C7"/>
<stop offset="0.362364" stop-color="#CE1AE8"/>
<stop offset="0.659135" stop-color="#5283F8"/>
<stop offset="0.827742" stop-color="#00A3FF"/>
<stop offset="1" stop-color="#00C2FF"/>
</linearGradient>
</defs>
</svg>
